<svg width="619" height="440" viewBox="0 0 619 440" fill="none" xmlns="http://www.w3.org/2000/svg">
<path d="M248.266 98.3127C249.321 98.0502 249.813 97.2626 249.364 96.5535C248.915 95.8445 247.695 95.4825 246.639 95.745L248.266 98.3127ZM372.505 342.004C371.708 342.522 371.732 343.389 372.558 343.939L386.016 352.906C386.842 353.456 388.157 353.482 388.954 352.963C389.75 352.445 389.726 351.578 388.901 351.028L376.938 343.057L388.476 335.546C389.273 335.027 389.249 334.161 388.423 333.611C387.597 333.061 386.282 333.035 385.486 333.553L372.505 342.004ZM246.639 95.745C220.617 102.214 205.722 112.304 200.401 124.469C195.097 136.595 199.44 150.485 210.914 164.38C233.845 192.151 285.677 220.508 349.725 236.416L351.026 233.86C287.698 218.13 236.843 190.168 214.543 163.162C203.401 149.668 199.493 136.555 204.398 125.341C209.287 114.166 223.061 104.579 248.266 98.3127L246.639 95.745ZM349.725 236.416C412.977 252.127 446.182 279.294 450.114 301.85C452.074 313.091 446.804 323.241 434.31 330.477C421.778 337.735 401.769 342.175 373.962 341.632L374.037 344.368C402.53 344.925 423.64 340.387 437.136 332.571C450.672 324.732 456.341 313.711 454.242 301.666C450.056 277.651 415.149 249.787 351.026 233.86L349.725 236.416Z" fill="#F2317A"/>
<g filter="url(#filter0_d_50_18)">
<rect x="248" y="68" width="302.727" height="63.3365" rx="10" fill="url(#paint0_linear_50_18)"/>
</g>
<path d="M267.57 107V92.8182H271.318V95.3203H271.484C271.78 94.4893 272.272 93.8338 272.962 93.3537C273.651 92.8736 274.476 92.6335 275.436 92.6335C276.409 92.6335 277.237 92.8767 277.92 93.3629C278.603 93.843 279.058 94.4955 279.286 95.3203H279.434C279.723 94.5078 280.246 93.8584 281.004 93.3722C281.767 92.8797 282.669 92.6335 283.709 92.6335C285.032 92.6335 286.106 93.0552 286.931 93.8984C287.762 94.7356 288.178 95.9235 288.178 97.4624V107H284.254V98.2379C284.254 97.45 284.044 96.8591 283.626 96.4652C283.207 96.0713 282.684 95.8743 282.056 95.8743C281.342 95.8743 280.785 96.102 280.385 96.5575C279.985 97.0069 279.785 97.6009 279.785 98.3395V107H275.972V98.1548C275.972 97.4593 275.772 96.9053 275.371 96.4929C274.978 96.0805 274.457 95.8743 273.811 95.8743C273.374 95.8743 272.98 95.9851 272.629 96.2067C272.285 96.4221 272.011 96.7268 271.808 97.1207C271.604 97.5085 271.503 97.964 271.503 98.4872V107H267.57ZM293.205 112.318C292.706 112.318 292.239 112.278 291.801 112.198C291.371 112.124 291.014 112.029 290.73 111.912L291.617 108.976C292.078 109.117 292.494 109.194 292.863 109.207C293.239 109.219 293.562 109.133 293.833 108.948C294.11 108.763 294.334 108.45 294.507 108.006L294.738 107.406L289.65 92.8182H293.787L296.723 103.233H296.87L299.834 92.8182H303.998L298.486 108.533C298.221 109.296 297.861 109.961 297.406 110.527C296.957 111.099 296.387 111.54 295.698 111.847C295.008 112.161 294.177 112.318 293.205 112.318ZM317.811 96.8622L314.21 97.0838C314.148 96.776 314.016 96.4991 313.813 96.2528C313.61 96.0005 313.342 95.8004 313.01 95.6527C312.683 95.4988 312.292 95.4219 311.837 95.4219C311.228 95.4219 310.714 95.5511 310.295 95.8097C309.877 96.062 309.667 96.4006 309.667 96.8253C309.667 97.1638 309.803 97.45 310.074 97.6839C310.344 97.9179 310.809 98.1056 311.468 98.2472L314.034 98.7642C315.413 99.0473 316.441 99.5028 317.118 100.131C317.795 100.759 318.134 101.583 318.134 102.605C318.134 103.535 317.86 104.35 317.312 105.052C316.77 105.754 316.026 106.301 315.078 106.695C314.136 107.083 313.05 107.277 311.819 107.277C309.941 107.277 308.445 106.886 307.331 106.104C306.223 105.317 305.574 104.246 305.383 102.891L309.252 102.688C309.369 103.261 309.652 103.698 310.101 103.999C310.551 104.295 311.126 104.442 311.828 104.442C312.517 104.442 313.071 104.31 313.49 104.045C313.914 103.775 314.13 103.427 314.136 103.002C314.13 102.645 313.979 102.353 313.684 102.125C313.388 101.891 312.933 101.713 312.317 101.589L309.861 101.1C308.476 100.823 307.445 100.343 306.768 99.6598C306.097 98.9766 305.762 98.1056 305.762 97.0469C305.762 96.1359 306.008 95.3511 306.5 94.6925C306.999 94.0339 307.698 93.526 308.596 93.169C309.501 92.812 310.56 92.6335 311.772 92.6335C313.564 92.6335 314.973 93.0121 316.001 93.7692C317.035 94.5263 317.638 95.5573 317.811 96.8622ZM324.544 98.8011V107H320.611V92.8182H324.359V95.3203H324.525C324.839 94.4955 325.366 93.843 326.104 93.3629C326.843 92.8767 327.738 92.6335 328.791 92.6335C329.776 92.6335 330.635 92.849 331.367 93.2798C332.099 93.7107 332.669 94.3262 333.075 95.1264C333.481 95.9205 333.684 96.8684 333.684 97.9702V107H329.751V98.6719C329.757 97.804 329.536 97.1269 329.086 96.6406C328.637 96.1482 328.019 95.902 327.231 95.902C326.701 95.902 326.233 96.0159 325.827 96.2436C325.427 96.4714 325.113 96.8037 324.885 97.2408C324.664 97.6716 324.55 98.1918 324.544 98.8011ZM348.584 96.8622L344.983 97.0838C344.922 96.776 344.789 96.4991 344.586 96.2528C344.383 96.0005 344.115 95.8004 343.783 95.6527C343.457 95.4988 343.066 95.4219 342.61 95.4219C342.001 95.4219 341.487 95.5511 341.069 95.8097C340.65 96.062 340.441 96.4006 340.441 96.8253C340.441 97.1638 340.576 97.45 340.847 97.6839C341.118 97.9179 341.583 98.1056 342.241 98.2472L344.808 98.7642C346.187 99.0473 347.215 99.5028 347.892 100.131C348.569 100.759 348.907 101.583 348.907 102.605C348.907 103.535 348.633 104.35 348.086 105.052C347.544 105.754 346.799 106.301 345.851 106.695C344.909 107.083 343.823 107.277 342.592 107.277C340.715 107.277 339.219 106.886 338.105 106.104C336.997 105.317 336.347 104.246 336.157 102.891L340.025 102.688C340.142 103.261 340.425 103.698 340.875 103.999C341.324 104.295 341.9 104.442 342.601 104.442C343.291 104.442 343.845 104.31 344.263 104.045C344.688 103.775 344.903 103.427 344.909 103.002C344.903 102.645 344.752 102.353 344.457 102.125C344.162 101.891 343.706 101.713 343.091 101.589L340.635 101.1C339.25 100.823 338.219 100.343 337.542 99.6598C336.871 98.9766 336.535 98.1056 336.535 97.0469C336.535 96.1359 336.781 95.3511 337.274 94.6925C337.772 94.0339 338.471 93.526 339.37 93.169C340.275 92.812 341.333 92.6335 342.546 92.6335C344.337 92.6335 345.747 93.0121 346.775 93.7692C347.809 94.5263 348.412 95.5573 348.584 96.8622ZM353.683 107.24C353.074 107.24 352.55 107.025 352.113 106.594C351.683 106.157 351.467 105.634 351.467 105.024C351.467 104.421 351.683 103.904 352.113 103.473C352.55 103.042 353.074 102.827 353.683 102.827C354.274 102.827 354.791 103.042 355.234 103.473C355.677 103.904 355.899 104.421 355.899 105.024C355.899 105.43 355.794 105.803 355.585 106.141C355.382 106.474 355.114 106.741 354.782 106.945C354.449 107.142 354.083 107.24 353.683 107.24ZM359.128 107V92.8182H363.061V107H359.128ZM361.104 90.9901C360.519 90.9901 360.018 90.7962 359.599 90.4084C359.187 90.0144 358.98 89.5436 358.98 88.9957C358.98 88.4541 359.187 87.9893 359.599 87.6016C360.018 87.2076 360.519 87.0107 361.104 87.0107C361.689 87.0107 362.187 87.2076 362.6 87.6016C363.018 87.9893 363.228 88.4541 363.228 88.9957C363.228 89.5436 363.018 90.0144 362.6 90.4084C362.187 90.7962 361.689 90.9901 361.104 90.9901ZM372.62 107.277C371.186 107.277 369.945 106.972 368.899 106.363C367.859 105.747 367.055 104.892 366.489 103.796C365.923 102.694 365.64 101.417 365.64 99.9645C365.64 98.4995 365.923 97.2192 366.489 96.1236C367.055 95.0218 367.859 94.1662 368.899 93.5568C369.945 92.9413 371.186 92.6335 372.62 92.6335C374.054 92.6335 375.291 92.9413 376.331 93.5568C377.378 94.1662 378.184 95.0218 378.751 96.1236C379.317 97.2192 379.6 98.4995 379.6 99.9645C379.6 101.417 379.317 102.694 378.751 103.796C378.184 104.892 377.378 105.747 376.331 106.363C375.291 106.972 374.054 107.277 372.62 107.277ZM372.638 104.23C373.291 104.23 373.836 104.045 374.273 103.676C374.71 103.301 375.039 102.79 375.26 102.143C375.488 101.497 375.602 100.762 375.602 99.9368C375.602 99.112 375.488 98.3764 375.26 97.7301C375.039 97.0838 374.71 96.5729 374.273 96.1974C373.836 95.822 373.291 95.6342 372.638 95.6342C371.98 95.6342 371.426 95.822 370.976 96.1974C370.533 96.5729 370.198 97.0838 369.97 97.7301C369.748 98.3764 369.638 99.112 369.638 99.9368C369.638 100.762 369.748 101.497 369.97 102.143C370.198 102.79 370.533 103.301 370.976 103.676C371.426 104.045 371.98 104.23 372.638 104.23ZM390.393 87.2045L384.3 109.844H380.911L387.005 87.2045H390.393ZM396.222 98.8011V107H392.288V88.0909H396.111V95.3203H396.277C396.597 94.4832 397.114 93.8277 397.828 93.3537C398.542 92.8736 399.438 92.6335 400.515 92.6335C401.5 92.6335 402.358 92.849 403.091 93.2798C403.83 93.7045 404.402 94.317 404.808 95.1172C405.221 95.9112 405.424 96.8622 405.418 97.9702V107H401.484V98.6719C401.491 97.7978 401.269 97.1177 400.82 96.6314C400.376 96.1451 399.755 95.902 398.955 95.902C398.419 95.902 397.945 96.0159 397.533 96.2436C397.126 96.4714 396.806 96.8037 396.572 97.2408C396.345 97.6716 396.228 98.1918 396.222 98.8011ZM414.976 107.277C413.517 107.277 412.262 106.982 411.209 106.391C410.163 105.794 409.356 104.95 408.79 103.861C408.224 102.765 407.941 101.469 407.941 99.9737C407.941 98.5149 408.224 97.2346 408.79 96.1328C409.356 95.031 410.153 94.1723 411.181 93.5568C412.215 92.9413 413.428 92.6335 414.819 92.6335C415.755 92.6335 416.626 92.7843 417.432 93.0859C418.244 93.3814 418.952 93.8277 419.556 94.4247C420.165 95.0218 420.639 95.7727 420.977 96.6776C421.316 97.5762 421.485 98.6288 421.485 99.8352V100.915H409.51V98.478H417.783C417.783 97.9117 417.66 97.41 417.414 96.973C417.167 96.536 416.826 96.1944 416.389 95.9482C415.958 95.6958 415.456 95.5696 414.884 95.5696C414.287 95.5696 413.757 95.7081 413.296 95.9851C412.84 96.2559 412.483 96.6222 412.225 97.0838C411.966 97.5393 411.834 98.0471 411.828 98.6072V100.925C411.828 101.626 411.957 102.233 412.215 102.744C412.48 103.254 412.852 103.648 413.333 103.925C413.813 104.202 414.382 104.341 415.041 104.341C415.478 104.341 415.878 104.279 416.241 104.156C416.604 104.033 416.915 103.848 417.173 103.602C417.432 103.356 417.629 103.054 417.764 102.697L421.402 102.938C421.218 103.812 420.839 104.575 420.267 105.227C419.7 105.874 418.968 106.378 418.069 106.741C417.177 107.098 416.146 107.277 414.976 107.277ZM426.099 112.318C425.601 112.318 425.133 112.278 424.696 112.198C424.265 112.124 423.908 112.029 423.625 111.912L424.511 108.976C424.973 109.117 425.388 109.194 425.758 109.207C426.133 109.219 426.456 109.133 426.727 108.948C427.004 108.763 427.229 108.45 427.401 108.006L427.632 107.406L422.545 92.8182H426.681L429.617 103.233H429.765L432.729 92.8182H436.893L431.381 108.533C431.116 109.296 430.756 109.961 430.3 110.527C429.851 111.099 429.282 111.54 428.592 111.847C427.903 112.161 427.072 112.318 426.099 112.318ZM438.979 107V88.0909H442.913V95.2003H443.033C443.205 94.8187 443.454 94.4309 443.781 94.0369C444.113 93.6368 444.544 93.3045 445.073 93.0398C445.609 92.7689 446.273 92.6335 447.067 92.6335C448.102 92.6335 449.056 92.9044 449.93 93.446C450.804 93.9815 451.502 94.791 452.026 95.8743C452.549 96.9515 452.81 98.3026 452.81 99.9276C452.81 101.509 452.555 102.845 452.044 103.935C451.539 105.018 450.85 105.84 449.976 106.4C449.108 106.954 448.135 107.231 447.058 107.231C446.295 107.231 445.646 107.105 445.11 106.852C444.581 106.6 444.147 106.283 443.808 105.901C443.47 105.513 443.211 105.123 443.033 104.729H442.857V107H438.979ZM442.83 99.9091C442.83 100.752 442.946 101.488 443.18 102.116C443.414 102.744 443.753 103.233 444.196 103.584C444.639 103.929 445.178 104.101 445.812 104.101C446.452 104.101 446.994 103.925 447.437 103.575C447.88 103.218 448.215 102.725 448.443 102.097C448.677 101.463 448.794 100.734 448.794 99.9091C448.794 99.0904 448.68 98.3703 448.452 97.7486C448.225 97.1269 447.889 96.6406 447.446 96.2898C447.003 95.9389 446.458 95.7635 445.812 95.7635C445.172 95.7635 444.63 95.9328 444.187 96.2713C443.75 96.6098 443.414 97.09 443.18 97.7116C442.946 98.3333 442.83 99.0658 442.83 99.9091ZM461.843 107.277C460.408 107.277 459.168 106.972 458.122 106.363C457.081 105.747 456.278 104.892 455.712 103.796C455.146 102.694 454.862 101.417 454.862 99.9645C454.862 98.4995 455.146 97.2192 455.712 96.1236C456.278 95.0218 457.081 94.1662 458.122 93.5568C459.168 92.9413 460.408 92.6335 461.843 92.6335C463.277 92.6335 464.514 92.9413 465.554 93.5568C466.601 94.1662 467.407 95.0218 467.973 96.1236C468.539 97.2192 468.823 98.4995 468.823 99.9645C468.823 101.417 468.539 102.694 467.973 103.796C467.407 104.892 466.601 105.747 465.554 106.363C464.514 106.972 463.277 107.277 461.843 107.277ZM461.861 104.23C462.513 104.23 463.058 104.045 463.495 103.676C463.932 103.301 464.262 102.79 464.483 102.143C464.711 101.497 464.825 100.762 464.825 99.9368C464.825 99.112 464.711 98.3764 464.483 97.7301C464.262 97.0838 463.932 96.5729 463.495 96.1974C463.058 95.822 462.513 95.6342 461.861 95.6342C461.202 95.6342 460.648 95.822 460.199 96.1974C459.756 96.5729 459.42 97.0838 459.193 97.7301C458.971 98.3764 458.86 99.112 458.86 99.9368C458.86 100.762 458.971 101.497 459.193 102.143C459.42 102.79 459.756 103.301 460.199 103.676C460.648 104.045 461.202 104.23 461.861 104.23ZM475.313 88.0909V107H471.38V88.0909H475.313ZM486.007 92.8182V95.7727H477.467V92.8182H486.007ZM479.406 89.4205H483.339V102.642C483.339 103.005 483.395 103.288 483.505 103.491C483.616 103.688 483.77 103.827 483.967 103.907C484.17 103.987 484.404 104.027 484.669 104.027C484.853 104.027 485.038 104.012 485.223 103.981C485.407 103.944 485.549 103.916 485.647 103.898L486.266 106.825C486.069 106.886 485.792 106.957 485.435 107.037C485.078 107.123 484.644 107.175 484.133 107.194C483.185 107.231 482.354 107.105 481.64 106.815C480.932 106.526 480.382 106.077 479.988 105.467C479.594 104.858 479.4 104.089 479.406 103.159V89.4205ZM490.869 107.24C490.259 107.24 489.736 107.025 489.299 106.594C488.868 106.157 488.653 105.634 488.653 105.024C488.653 104.421 488.868 103.904 489.299 103.473C489.736 103.042 490.259 102.827 490.869 102.827C491.46 102.827 491.977 103.042 492.42 103.473C492.863 103.904 493.085 104.421 493.085 105.024C493.085 105.43 492.98 105.803 492.771 106.141C492.567 106.474 492.3 106.741 491.967 106.945C491.635 107.142 491.269 107.24 490.869 107.24ZM508.113 96.8622L504.513 97.0838C504.451 96.776 504.319 96.4991 504.116 96.2528C503.912 96.0005 503.645 95.8004 503.312 95.6527C502.986 95.4988 502.595 95.4219 502.14 95.4219C501.53 95.4219 501.016 95.5511 500.598 95.8097C500.179 96.062 499.97 96.4006 499.97 96.8253C499.97 97.1638 500.105 97.45 500.376 97.6839C500.647 97.9179 501.112 98.1056 501.77 98.2472L504.337 98.7642C505.716 99.0473 506.744 99.5028 507.421 100.131C508.098 100.759 508.437 101.583 508.437 102.605C508.437 103.535 508.163 104.35 507.615 105.052C507.073 105.754 506.328 106.301 505.381 106.695C504.439 107.083 503.352 107.277 502.121 107.277C500.244 107.277 498.748 106.886 497.634 106.104C496.526 105.317 495.877 104.246 495.686 102.891L499.555 102.688C499.671 103.261 499.955 103.698 500.404 103.999C500.853 104.295 501.429 104.442 502.131 104.442C502.82 104.442 503.374 104.31 503.792 104.045C504.217 103.775 504.433 103.427 504.439 103.002C504.433 102.645 504.282 102.353 503.986 102.125C503.691 101.891 503.235 101.713 502.62 101.589L500.164 101.1C498.779 100.823 497.748 100.343 497.071 99.6598C496.4 98.9766 496.064 98.1056 496.064 97.0469C496.064 96.1359 496.311 95.3511 496.803 94.6925C497.302 94.0339 498 93.526 498.899 93.169C499.804 92.812 500.863 92.6335 502.075 92.6335C503.866 92.6335 505.276 93.0121 506.304 93.7692C507.338 94.5263 507.941 95.5573 508.113 96.8622ZM517.321 107.277C515.887 107.277 514.647 106.972 513.6 106.363C512.56 105.747 511.757 104.892 511.19 103.796C510.624 102.694 510.341 101.417 510.341 99.9645C510.341 98.4995 510.624 97.2192 511.19 96.1236C511.757 95.0218 512.56 94.1662 513.6 93.5568C514.647 92.9413 515.887 92.6335 517.321 92.6335C518.755 92.6335 519.992 92.9413 521.033 93.5568C522.079 94.1662 522.885 95.0218 523.452 96.1236C524.018 97.2192 524.301 98.4995 524.301 99.9645C524.301 101.417 524.018 102.694 523.452 103.796C522.885 104.892 522.079 105.747 521.033 106.363C519.992 106.972 518.755 107.277 517.321 107.277ZM517.339 104.23C517.992 104.23 518.537 104.045 518.974 103.676C519.411 103.301 519.74 102.79 519.962 102.143C520.189 101.497 520.303 100.762 520.303 99.9368C520.303 99.112 520.189 98.3764 519.962 97.7301C519.74 97.0838 519.411 96.5729 518.974 96.1974C518.537 95.822 517.992 95.6342 517.339 95.6342C516.681 95.6342 516.127 95.822 515.678 96.1974C515.234 96.5729 514.899 97.0838 514.671 97.7301C514.45 98.3764 514.339 99.112 514.339 99.9368C514.339 100.762 514.45 101.497 514.671 102.143C514.899 102.79 515.234 103.301 515.678 103.676C516.127 104.045 516.681 104.23 517.339 104.23ZM530.792 88.0909V107H526.859V88.0909H530.792Z" fill="white"/>
<g filter="url(#filter1_d_50_18)">
<rect x="68" y="309" width="302.73" height="62.8484" rx="10" fill="url(#paint1_linear_50_18)"/>
</g>
<path d="M106.959 354.614C105.685 354.614 104.592 354.438 103.681 354.087C102.776 353.743 102.056 353.272 101.521 352.675C100.985 352.078 100.637 351.407 100.477 350.662L104.115 350.173C104.226 350.456 104.401 350.72 104.641 350.967C104.881 351.213 105.198 351.41 105.592 351.558C105.992 351.711 106.479 351.788 107.051 351.788C107.907 351.788 108.612 351.579 109.165 351.161C109.726 350.748 110.006 350.056 110.006 349.083V346.489H109.839C109.667 346.883 109.409 347.255 109.064 347.606C108.719 347.957 108.276 348.243 107.734 348.464C107.193 348.686 106.546 348.797 105.795 348.797C104.731 348.797 103.761 348.551 102.887 348.058C102.019 347.56 101.327 346.799 100.81 345.778C100.299 344.75 100.043 343.451 100.043 341.881C100.043 340.275 100.305 338.933 100.828 337.856C101.351 336.779 102.047 335.972 102.915 335.437C103.789 334.901 104.746 334.634 105.786 334.634C106.58 334.634 107.245 334.769 107.781 335.04C108.316 335.304 108.747 335.637 109.073 336.037C109.406 336.431 109.661 336.819 109.839 337.2H109.987V334.818H113.893V349.138C113.893 350.345 113.597 351.354 113.006 352.167C112.415 352.979 111.597 353.589 110.55 353.995C109.51 354.407 108.313 354.614 106.959 354.614ZM107.042 345.842C107.676 345.842 108.211 345.685 108.648 345.371C109.092 345.051 109.43 344.596 109.664 344.005C109.904 343.408 110.024 342.694 110.024 341.863C110.024 341.032 109.907 340.312 109.673 339.702C109.439 339.087 109.101 338.61 108.658 338.271C108.214 337.933 107.676 337.763 107.042 337.763C106.396 337.763 105.851 337.939 105.408 338.29C104.964 338.634 104.629 339.115 104.401 339.73C104.174 340.346 104.06 341.057 104.06 341.863C104.06 342.682 104.174 343.389 104.401 343.987C104.635 344.577 104.971 345.036 105.408 345.362C105.851 345.682 106.396 345.842 107.042 345.842ZM117.023 349V334.818H120.956V349H117.023ZM118.999 332.99C118.414 332.99 117.912 332.796 117.494 332.408C117.081 332.014 116.875 331.544 116.875 330.996C116.875 330.454 117.081 329.989 117.494 329.602C117.912 329.208 118.414 329.011 118.999 329.011C119.583 329.011 120.082 329.208 120.494 329.602C120.913 329.989 121.122 330.454 121.122 330.996C121.122 331.544 120.913 332.014 120.494 332.408C120.082 332.796 119.583 332.99 118.999 332.99ZM131.65 334.818V337.773H123.11V334.818H131.65ZM125.048 331.42H128.982V344.642C128.982 345.005 129.037 345.288 129.148 345.491C129.259 345.688 129.413 345.827 129.61 345.907C129.813 345.987 130.047 346.027 130.311 346.027C130.496 346.027 130.681 346.012 130.865 345.981C131.05 345.944 131.191 345.916 131.29 345.898L131.909 348.825C131.712 348.886 131.435 348.957 131.078 349.037C130.721 349.123 130.287 349.175 129.776 349.194C128.828 349.231 127.997 349.105 127.283 348.815C126.575 348.526 126.024 348.077 125.63 347.467C125.236 346.858 125.042 346.089 125.048 345.159V331.42ZM138.45 340.801V349H134.517V330.091H138.339V337.32H138.506C138.826 336.483 139.343 335.828 140.057 335.354C140.771 334.874 141.666 334.634 142.743 334.634C143.728 334.634 144.587 334.849 145.319 335.28C146.058 335.705 146.631 336.317 147.037 337.117C147.449 337.911 147.652 338.862 147.646 339.97V349H143.713V340.672C143.719 339.798 143.497 339.118 143.048 338.631C142.605 338.145 141.983 337.902 141.183 337.902C140.648 337.902 140.174 338.016 139.761 338.244C139.355 338.471 139.035 338.804 138.801 339.241C138.573 339.672 138.456 340.192 138.45 340.801ZM159.836 342.962V334.818H163.769V349H159.993V346.424H159.845C159.525 347.255 158.993 347.923 158.248 348.428C157.509 348.932 156.607 349.185 155.543 349.185C154.595 349.185 153.761 348.969 153.04 348.538C152.32 348.107 151.757 347.495 151.351 346.701C150.951 345.907 150.748 344.956 150.741 343.848V334.818H154.675V343.146C154.681 343.983 154.906 344.645 155.349 345.131C155.792 345.618 156.386 345.861 157.131 345.861C157.605 345.861 158.048 345.753 158.46 345.538C158.873 345.316 159.205 344.99 159.457 344.559C159.716 344.128 159.842 343.596 159.836 342.962ZM166.989 349V330.091H170.922V337.2H171.042C171.215 336.819 171.464 336.431 171.79 336.037C172.123 335.637 172.554 335.304 173.083 335.04C173.618 334.769 174.283 334.634 175.077 334.634C176.111 334.634 177.065 334.904 177.939 335.446C178.814 335.982 179.512 336.791 180.035 337.874C180.559 338.951 180.82 340.303 180.82 341.928C180.82 343.509 180.565 344.845 180.054 345.935C179.549 347.018 178.86 347.84 177.986 348.4C177.118 348.954 176.145 349.231 175.068 349.231C174.305 349.231 173.655 349.105 173.12 348.852C172.59 348.6 172.157 348.283 171.818 347.901C171.479 347.513 171.221 347.123 171.042 346.729H170.867V349H166.989ZM170.839 341.909C170.839 342.752 170.956 343.488 171.19 344.116C171.424 344.744 171.763 345.233 172.206 345.584C172.649 345.929 173.188 346.101 173.822 346.101C174.462 346.101 175.003 345.925 175.447 345.575C175.89 345.218 176.225 344.725 176.453 344.097C176.687 343.463 176.804 342.734 176.804 341.909C176.804 341.09 176.69 340.37 176.462 339.749C176.234 339.127 175.899 338.641 175.456 338.29C175.013 337.939 174.468 337.763 173.822 337.763C173.181 337.763 172.64 337.933 172.197 338.271C171.76 338.61 171.424 339.09 171.19 339.712C170.956 340.333 170.839 341.066 170.839 341.909ZM185.744 349.24C185.134 349.24 184.611 349.025 184.174 348.594C183.743 348.157 183.528 347.634 183.528 347.024C183.528 346.421 183.743 345.904 184.174 345.473C184.611 345.042 185.134 344.827 185.744 344.827C186.335 344.827 186.852 345.042 187.295 345.473C187.738 345.904 187.96 346.421 187.96 347.024C187.96 347.43 187.855 347.803 187.646 348.141C187.442 348.474 187.175 348.741 186.842 348.945C186.51 349.142 186.144 349.24 185.744 349.24ZM197.596 349.277C196.144 349.277 194.894 348.969 193.848 348.354C192.808 347.732 192.007 346.87 191.447 345.768C190.893 344.667 190.616 343.399 190.616 341.964C190.616 340.512 190.896 339.238 191.456 338.142C192.023 337.04 192.826 336.182 193.866 335.566C194.907 334.944 196.144 334.634 197.578 334.634C198.815 334.634 199.898 334.858 200.828 335.308C201.757 335.757 202.493 336.388 203.035 337.2C203.576 338.013 203.875 338.967 203.93 340.062H200.219C200.114 339.355 199.837 338.785 199.388 338.354C198.944 337.917 198.363 337.699 197.643 337.699C197.033 337.699 196.501 337.865 196.045 338.197C195.596 338.524 195.245 339.001 194.993 339.629C194.74 340.256 194.614 341.017 194.614 341.909C194.614 342.814 194.737 343.583 194.983 344.217C195.236 344.851 195.59 345.335 196.045 345.667C196.501 345.999 197.033 346.165 197.643 346.165C198.092 346.165 198.495 346.073 198.852 345.888C199.215 345.704 199.514 345.436 199.748 345.085C199.988 344.728 200.145 344.3 200.219 343.802H203.93C203.869 344.885 203.573 345.839 203.044 346.664C202.521 347.483 201.797 348.123 200.874 348.585C199.951 349.046 198.858 349.277 197.596 349.277ZM212.856 349.277C211.422 349.277 210.182 348.972 209.135 348.363C208.095 347.747 207.292 346.892 206.725 345.796C206.159 344.694 205.876 343.417 205.876 341.964C205.876 340.5 206.159 339.219 206.725 338.124C207.292 337.022 208.095 336.166 209.135 335.557C210.182 334.941 211.422 334.634 212.856 334.634C214.29 334.634 215.528 334.941 216.568 335.557C217.614 336.166 218.421 337.022 218.987 338.124C219.553 339.219 219.836 340.5 219.836 341.964C219.836 343.417 219.553 344.694 218.987 345.796C218.421 346.892 217.614 347.747 216.568 348.363C215.528 348.972 214.29 349.277 212.856 349.277ZM212.875 346.23C213.527 346.23 214.072 346.045 214.509 345.676C214.946 345.301 215.275 344.79 215.497 344.143C215.725 343.497 215.838 342.762 215.838 341.937C215.838 341.112 215.725 340.376 215.497 339.73C215.275 339.084 214.946 338.573 214.509 338.197C214.072 337.822 213.527 337.634 212.875 337.634C212.216 337.634 211.662 337.822 211.213 338.197C210.77 338.573 210.434 339.084 210.206 339.73C209.985 340.376 209.874 341.112 209.874 341.937C209.874 342.762 209.985 343.497 210.206 344.143C210.434 344.79 210.77 345.301 211.213 345.676C211.662 346.045 212.216 346.23 212.875 346.23ZM222.394 349V334.818H226.142V337.32H226.309C226.604 336.489 227.096 335.834 227.786 335.354C228.475 334.874 229.3 334.634 230.26 334.634C231.233 334.634 232.061 334.877 232.744 335.363C233.427 335.843 233.883 336.496 234.11 337.32H234.258C234.547 336.508 235.071 335.858 235.828 335.372C236.591 334.88 237.493 334.634 238.533 334.634C239.856 334.634 240.931 335.055 241.755 335.898C242.586 336.736 243.002 337.924 243.002 339.462V349H239.078V340.238C239.078 339.45 238.868 338.859 238.45 338.465C238.031 338.071 237.508 337.874 236.88 337.874C236.166 337.874 235.609 338.102 235.209 338.558C234.809 339.007 234.609 339.601 234.609 340.339V349H230.796V340.155C230.796 339.459 230.596 338.905 230.196 338.493C229.802 338.08 229.282 337.874 228.635 337.874C228.198 337.874 227.804 337.985 227.453 338.207C227.109 338.422 226.835 338.727 226.632 339.121C226.429 339.509 226.327 339.964 226.327 340.487V349H222.394ZM254.344 329.205L248.251 351.844H244.862L250.956 329.205H254.344ZM262.629 354.614C261.355 354.614 260.262 354.438 259.351 354.087C258.446 353.743 257.726 353.272 257.191 352.675C256.655 352.078 256.307 351.407 256.147 350.662L259.785 350.173C259.896 350.456 260.071 350.72 260.311 350.967C260.551 351.213 260.868 351.41 261.262 351.558C261.662 351.711 262.149 351.788 262.721 351.788C263.577 351.788 264.281 351.579 264.835 351.161C265.396 350.748 265.676 350.056 265.676 349.083V346.489H265.509C265.337 346.883 265.079 347.255 264.734 347.606C264.389 347.957 263.946 348.243 263.404 348.464C262.863 348.686 262.216 348.797 261.465 348.797C260.401 348.797 259.431 348.551 258.557 348.058C257.689 347.56 256.997 346.799 256.48 345.778C255.969 344.75 255.713 343.451 255.713 341.881C255.713 340.275 255.975 338.933 256.498 337.856C257.021 336.779 257.717 335.972 258.585 335.437C259.459 334.901 260.416 334.634 261.456 334.634C262.25 334.634 262.915 334.769 263.45 335.04C263.986 335.304 264.417 335.637 264.743 336.037C265.075 336.431 265.331 336.819 265.509 337.2H265.657V334.818H269.563V349.138C269.563 350.345 269.267 351.354 268.676 352.167C268.085 352.979 267.267 353.589 266.22 353.995C265.18 354.407 263.983 354.614 262.629 354.614ZM262.712 345.842C263.346 345.842 263.881 345.685 264.318 345.371C264.762 345.051 265.1 344.596 265.334 344.005C265.574 343.408 265.694 342.694 265.694 341.863C265.694 341.032 265.577 340.312 265.343 339.702C265.109 339.087 264.771 338.61 264.328 338.271C263.884 337.933 263.346 337.763 262.712 337.763C262.066 337.763 261.521 337.939 261.078 338.29C260.634 338.634 260.299 339.115 260.071 339.73C259.843 340.346 259.73 341.057 259.73 341.863C259.73 342.682 259.843 343.389 260.071 343.987C260.305 344.577 260.641 345.036 261.078 345.362C261.521 345.682 262.066 345.842 262.712 345.842ZM272.693 349V334.818H276.626V349H272.693ZM274.669 332.99C274.084 332.99 273.582 332.796 273.164 332.408C272.751 332.014 272.545 331.544 272.545 330.996C272.545 330.454 272.751 329.989 273.164 329.602C273.582 329.208 274.084 329.011 274.669 329.011C275.253 329.011 275.752 329.208 276.164 329.602C276.583 329.989 276.792 330.454 276.792 330.996C276.792 331.544 276.583 332.014 276.164 332.408C275.752 332.796 275.253 332.99 274.669 332.99ZM287.32 334.818V337.773H278.779V334.818H287.32ZM280.718 331.42H284.652V344.642C284.652 345.005 284.707 345.288 284.818 345.491C284.929 345.688 285.083 345.827 285.279 345.907C285.483 345.987 285.717 346.027 285.981 346.027C286.166 346.027 286.35 346.012 286.535 345.981C286.72 345.944 286.861 345.916 286.96 345.898L287.578 348.825C287.382 348.886 287.105 348.957 286.748 349.037C286.391 349.123 285.957 349.175 285.446 349.194C284.498 349.231 283.667 349.105 282.953 348.815C282.245 348.526 281.694 348.077 281.3 347.467C280.906 346.858 280.712 346.089 280.718 345.159V331.42ZM290.261 349V330.091H294.194V337.2H294.314C294.486 336.819 294.736 336.431 295.062 336.037C295.394 335.637 295.825 335.304 296.354 335.04C296.89 334.769 297.555 334.634 298.349 334.634C299.383 334.634 300.337 334.904 301.211 335.446C302.085 335.982 302.784 336.791 303.307 337.874C303.83 338.951 304.092 340.303 304.092 341.928C304.092 343.509 303.836 344.845 303.325 345.935C302.821 347.018 302.131 347.84 301.257 348.4C300.389 348.954 299.417 349.231 298.339 349.231C297.576 349.231 296.927 349.105 296.391 348.852C295.862 348.6 295.428 348.283 295.089 347.901C294.751 347.513 294.492 347.123 294.314 346.729H294.138V349H290.261ZM294.111 341.909C294.111 342.752 294.228 343.488 294.462 344.116C294.696 344.744 295.034 345.233 295.477 345.584C295.92 345.929 296.459 346.101 297.093 346.101C297.733 346.101 298.275 345.925 298.718 345.575C299.161 345.218 299.497 344.725 299.724 344.097C299.958 343.463 300.075 342.734 300.075 341.909C300.075 341.09 299.961 340.37 299.734 339.749C299.506 339.127 299.17 338.641 298.727 338.29C298.284 337.939 297.739 337.763 297.093 337.763C296.453 337.763 295.911 337.933 295.468 338.271C295.031 338.61 294.696 339.09 294.462 339.712C294.228 340.333 294.111 341.066 294.111 341.909ZM313.124 349.277C311.69 349.277 310.449 348.972 309.403 348.363C308.363 347.747 307.559 346.892 306.993 345.796C306.427 344.694 306.144 343.417 306.144 341.964C306.144 340.5 306.427 339.219 306.993 338.124C307.559 337.022 308.363 336.166 309.403 335.557C310.449 334.941 311.69 334.634 313.124 334.634C314.558 334.634 315.795 334.941 316.835 335.557C317.882 336.166 318.688 337.022 319.254 338.124C319.821 339.219 320.104 340.5 320.104 341.964C320.104 343.417 319.821 344.694 319.254 345.796C318.688 346.892 317.882 347.747 316.835 348.363C315.795 348.972 314.558 349.277 313.124 349.277ZM313.142 346.23C313.795 346.23 314.339 346.045 314.776 345.676C315.213 345.301 315.543 344.79 315.764 344.143C315.992 343.497 316.106 342.762 316.106 341.937C316.106 341.112 315.992 340.376 315.764 339.73C315.543 339.084 315.213 338.573 314.776 338.197C314.339 337.822 313.795 337.634 313.142 337.634C312.484 337.634 311.93 337.822 311.48 338.197C311.037 338.573 310.702 339.084 310.474 339.73C310.252 340.376 310.142 341.112 310.142 341.937C310.142 342.762 310.252 343.497 310.474 344.143C310.702 344.79 311.037 345.301 311.48 345.676C311.93 346.045 312.484 346.23 313.142 346.23ZM326.595 330.091V349H322.661V330.091H326.595ZM337.289 334.818V337.773H328.748V334.818H337.289ZM330.687 331.42H334.62V344.642C334.62 345.005 334.676 345.288 334.787 345.491C334.897 345.688 335.051 345.827 335.248 345.907C335.451 345.987 335.685 346.027 335.95 346.027C336.135 346.027 336.319 346.012 336.504 345.981C336.689 345.944 336.83 345.916 336.929 345.898L337.547 348.825C337.35 348.886 337.073 348.957 336.716 349.037C336.359 349.123 335.925 349.175 335.414 349.194C334.467 349.231 333.636 349.105 332.922 348.815C332.214 348.526 331.663 348.077 331.269 347.467C330.875 346.858 330.681 346.089 330.687 345.159V331.42Z" fill="white"/>
<defs>
<filter id="filter0_d_50_18" x="180" y="0" width="438.727" height="199.336" filterUnits="userSpaceOnUse" color-interpolation-filters="sRGB">
<feFlood flood-opacity="0" result="BackgroundImageFix"/>
<feColorMatrix in="SourceAlpha" type="matrix" values="0 0 0 0 0 0 0 0 0 0 0 0 0 0 0 0 0 0 127 0" result="hardAlpha"/>
<feMorphology radius="11" operator="erode" in="SourceAlpha" result="effect1_dropShadow_50_18"/>
<feOffset/>
<feGaussianBlur stdDeviation="39.5"/>
<feComposite in2="hardAlpha" operator="out"/>
<feColorMatrix type="matrix" values="0 0 0 0 1 0 0 0 0 0 0 0 0 0 0.36 0 0 0 0.46 0"/>
<feBlend mode="normal" in2="BackgroundImageFix" result="effect1_dropShadow_50_18"/>
<feBlend mode="normal" in="SourceGraphic" in2="effect1_dropShadow_50_18" result="shape"/>
</filter>
<filter id="filter1_d_50_18" x="0" y="241" width="438.73" height="198.848" filterUnits="userSpaceOnUse" color-interpolation-filters="sRGB">
<feFlood flood-opacity="0" result="BackgroundImageFix"/>
<feColorMatrix in="SourceAlpha" type="matrix" values="0 0 0 0 0 0 0 0 0 0 0 0 0 0 0 0 0 0 127 0" result="hardAlpha"/>
<feMorphology radius="11" operator="erode" in="SourceAlpha" result="effect1_dropShadow_50_18"/>
<feOffset/>
<feGaussianBlur stdDeviation="39.5"/>
<feComposite in2="hardAlpha" operator="out"/>
<feColorMatrix type="matrix" values="0 0 0 0 1 0 0 0 0 0 0 0 0 0 0.36 0 0 0 0.43 0"/>
<feBlend mode="normal" in2="BackgroundImageFix" result="effect1_dropShadow_50_18"/>
<feBlend mode="normal" in="SourceGraphic" in2="effect1_dropShadow_50_18" result="shape"/>
</filter>
<linearGradient id="paint0_linear_50_18" x1="242.615" y1="73.9667" x2="550.79" y2="130.129" gradientUnits="userSpaceOnUse">
<stop stop-color="#FF2D78"/>
<stop offset="1" stop-color="#C73D7F"/>
</linearGradient>
<linearGradient id="paint1_linear_50_18" x1="62.6148" y1="314.921" x2="370.638" y2="371.492" gradientUnits="userSpaceOnUse">
<stop stop-color="#FF2D78"/>
<stop offset="1" stop-color="#C73D7F"/>
</linearGradient>
</defs>
</svg>
