<svg width="1173" height="213" viewBox="0 0 1173 213" fill="none" xmlns="http://www.w3.org/2000/svg">
<rect x="1.5" y="8.95074" width="464" height="94" rx="18.5" fill="#E5E4FF" stroke="#C0CEFF" stroke-width="3"/>
<path d="M65.8111 67.4507V51.0871H70.1364V53.9742H70.3281C70.669 53.0154 71.2372 52.259 72.0327 51.705C72.8281 51.151 73.7798 50.874 74.8878 50.874C76.0099 50.874 76.9652 51.1546 77.7536 51.7157C78.5419 52.2696 79.0675 53.0225 79.3303 53.9742H79.5007C79.8345 53.0367 80.4382 52.2874 81.3118 51.7263C82.1925 51.1581 83.233 50.874 84.4332 50.874C85.9602 50.874 87.1996 51.3605 88.1513 52.3336C89.1101 53.2995 89.5895 54.6702 89.5895 56.4458V67.4507H85.0618V57.3407C85.0618 56.4316 84.8203 55.7497 84.3374 55.2952C83.8544 54.8407 83.2507 54.6134 82.5263 54.6134C81.7024 54.6134 81.0597 54.8762 80.598 55.4017C80.1364 55.9202 79.9055 56.6056 79.9055 57.4578V67.4507H75.5057V57.2448C75.5057 56.4422 75.2749 55.803 74.8132 55.3272C74.3587 54.8513 73.7585 54.6134 73.0128 54.6134C72.5085 54.6134 72.054 54.7412 71.6491 54.9969C71.2514 55.2455 70.9354 55.5971 70.701 56.0516C70.4666 56.499 70.3494 57.0246 70.3494 57.6283V67.4507H65.8111ZM95.3903 73.5871C94.815 73.5871 94.2752 73.5409 93.771 73.4486C93.2738 73.3634 92.8619 73.2533 92.5352 73.1184L93.5579 69.7306C94.0906 69.8939 94.57 69.9827 94.9961 69.9969C95.4293 70.0111 95.8022 69.9117 96.1147 69.6986C96.4343 69.4855 96.6935 69.1233 96.8924 68.612L97.1587 67.9195L91.2887 51.0871H96.0614L99.4492 63.1042H99.6197L103.039 51.0871H107.844L101.484 69.2192C101.179 70.0999 100.763 70.8669 100.238 71.5203C99.7191 72.1809 99.0621 72.6887 98.2667 73.0438C97.4712 73.406 96.5124 73.5871 95.3903 73.5871ZM123.782 55.7533L119.627 56.009C119.556 55.6539 119.403 55.3343 119.169 55.0502C118.934 54.759 118.625 54.5282 118.242 54.3577C117.865 54.1801 117.414 54.0914 116.889 54.0914C116.186 54.0914 115.593 54.2405 115.11 54.5388C114.627 54.83 114.385 55.2206 114.385 55.7107C114.385 56.1013 114.542 56.4316 114.854 56.7015C115.167 56.9713 115.703 57.188 116.463 57.3513L119.424 57.9479C121.015 58.2746 122.201 58.8002 122.983 59.5246C123.764 60.249 124.154 61.2007 124.154 62.3797C124.154 63.4522 123.838 64.3932 123.206 65.2029C122.581 66.0125 121.722 66.6446 120.628 67.0992C119.542 67.5466 118.288 67.7703 116.868 67.7703C114.701 67.7703 112.975 67.3194 111.69 66.4174C110.412 65.5083 109.662 64.2725 109.442 62.71L113.906 62.4756C114.041 63.1361 114.368 63.6404 114.886 63.9884C115.404 64.3293 116.069 64.4998 116.878 64.4998C117.674 64.4998 118.313 64.3471 118.796 64.0417C119.286 63.7292 119.534 63.3279 119.542 62.8378C119.534 62.4259 119.36 62.0885 119.02 61.8257C118.679 61.5559 118.153 61.3499 117.443 61.2078L114.609 60.6432C113.011 60.3236 111.821 59.7696 111.04 58.9813C110.266 58.1929 109.879 57.188 109.879 55.9664C109.879 54.9152 110.163 54.0097 110.731 53.2497C111.306 52.4898 112.113 51.9039 113.15 51.4919C114.194 51.08 115.415 50.874 116.814 50.874C118.881 50.874 120.507 51.3108 121.694 52.1844C122.887 53.058 123.583 54.2476 123.782 55.7533ZM131.551 57.9905V67.4507H127.012V51.0871H131.338V53.9742H131.529C131.892 53.0225 132.499 52.2696 133.351 51.7157C134.203 51.1546 135.237 50.874 136.451 50.874C137.588 50.874 138.578 51.1226 139.423 51.6198C140.269 52.1169 140.926 52.8272 141.394 53.7505C141.863 54.6667 142.097 55.7604 142.097 57.0317V67.4507H137.559V57.8414C137.566 56.8399 137.311 56.0587 136.792 55.4976C136.274 54.9294 135.56 54.6453 134.651 54.6453C134.04 54.6453 133.5 54.7767 133.031 55.0395C132.57 55.3023 132.208 55.6858 131.945 56.1901C131.689 56.6873 131.558 57.2874 131.551 57.9905ZM159.289 55.7533L155.135 56.009C155.064 55.6539 154.911 55.3343 154.676 55.0502C154.442 54.759 154.133 54.5282 153.75 54.3577C153.373 54.1801 152.922 54.0914 152.397 54.0914C151.694 54.0914 151.1 54.2405 150.618 54.5388C150.135 54.83 149.893 55.2206 149.893 55.7107C149.893 56.1013 150.049 56.4316 150.362 56.7015C150.674 56.9713 151.211 57.188 151.971 57.3513L154.932 57.9479C156.523 58.2746 157.709 58.8002 158.49 59.5246C159.272 60.249 159.662 61.2007 159.662 62.3797C159.662 63.4522 159.346 64.3932 158.714 65.2029C158.089 66.0125 157.23 66.6446 156.136 67.0992C155.049 67.5466 153.796 67.7703 152.375 67.7703C150.209 67.7703 148.483 67.3194 147.198 66.4174C145.919 65.5083 145.17 64.2725 144.95 62.71L149.414 62.4756C149.549 63.1361 149.875 63.6404 150.394 63.9884C150.912 64.3293 151.576 64.4998 152.386 64.4998C153.181 64.4998 153.821 64.3471 154.304 64.0417C154.794 63.7292 155.042 63.3279 155.049 62.8378C155.042 62.4259 154.868 62.0885 154.527 61.8257C154.186 61.5559 153.661 61.3499 152.951 61.2078L150.117 60.6432C148.519 60.3236 147.329 59.7696 146.548 58.9813C145.774 58.1929 145.387 57.188 145.387 55.9664C145.387 54.9152 145.671 54.0097 146.239 53.2497C146.814 52.4898 147.62 51.9039 148.657 51.4919C149.701 51.08 150.923 50.874 152.322 50.874C154.389 50.874 156.015 51.3108 157.201 52.1844C158.395 53.058 159.091 54.2476 159.289 55.7533ZM165.173 67.7277C164.47 67.7277 163.866 67.4792 163.362 66.982C162.865 66.4777 162.616 65.874 162.616 65.1709C162.616 64.4749 162.865 63.8783 163.362 63.3811C163.866 62.884 164.47 62.6354 165.173 62.6354C165.855 62.6354 166.451 62.884 166.963 63.3811C167.474 63.8783 167.73 64.4749 167.73 65.1709C167.73 65.6397 167.609 66.0694 167.367 66.46C167.133 66.8435 166.824 67.1524 166.441 67.3868C166.057 67.6141 165.634 67.7277 165.173 67.7277ZM175.248 51.0871L178.252 56.808L181.331 51.0871H185.987L181.246 59.2689L186.115 67.4507H181.48L178.252 61.7938L175.078 67.4507H170.39L175.248 59.2689L170.561 51.0871H175.248ZM191.484 73.5871C190.909 73.5871 190.369 73.5409 189.865 73.4486C189.368 73.3634 188.956 73.2533 188.629 73.1184L189.652 69.7306C190.184 69.8939 190.664 69.9827 191.09 69.9969C191.523 70.0111 191.896 69.9117 192.208 69.6986C192.528 69.4855 192.787 69.1233 192.986 68.612L193.252 67.9195L187.382 51.0871H192.155L195.543 63.1042H195.713L199.133 51.0871H203.938L197.578 69.2192C197.272 70.0999 196.857 70.8669 196.331 71.5203C195.813 72.1809 195.156 72.6887 194.36 73.0438C193.565 73.406 192.606 73.5871 191.484 73.5871ZM206.175 67.4507V64.7448L214.186 54.8265V54.7093H206.452V51.0871H219.652V54.0381L212.13 63.7114V63.8286H219.929V67.4507H206.175ZM232.902 44.6098L225.871 70.732H221.961L228.992 44.6098H232.902ZM239.627 57.9905V67.4507H235.088V45.6326H239.499V53.9742H239.691C240.06 53.0083 240.657 52.2519 241.48 51.705C242.304 51.151 243.338 50.874 244.581 50.874C245.717 50.874 246.708 51.1226 247.553 51.6198C248.405 52.1098 249.066 52.8165 249.534 53.7398C250.01 54.656 250.245 55.7533 250.238 57.0317V67.4507H245.699V57.8414C245.706 56.8328 245.451 56.048 244.932 55.487C244.421 54.9259 243.703 54.6453 242.78 54.6453C242.162 54.6453 241.615 54.7767 241.14 55.0395C240.671 55.3023 240.301 55.6858 240.032 56.1901C239.769 56.6873 239.634 57.2874 239.627 57.9905ZM261.267 67.7703C259.583 67.7703 258.134 67.4294 256.92 66.7476C255.713 66.0587 254.782 65.0857 254.129 63.8286C253.475 62.5644 253.149 61.0694 253.149 59.3435C253.149 57.6603 253.475 56.183 254.129 54.9117C254.782 53.6404 255.702 52.6496 256.888 51.9394C258.081 51.2292 259.48 50.874 261.085 50.874C262.165 50.874 263.17 51.048 264.1 51.3961C265.038 51.737 265.855 52.2519 266.551 52.9408C267.254 53.6297 267.801 54.4962 268.191 55.5402C268.582 56.5772 268.777 57.7917 268.777 59.1837V60.4301H254.96V57.6176H264.505C264.505 56.9642 264.363 56.3854 264.079 55.8811C263.795 55.3769 263.401 54.9827 262.896 54.6986C262.399 54.4074 261.82 54.2618 261.16 54.2618C260.471 54.2618 259.86 54.4216 259.328 54.7412C258.802 55.0537 258.39 55.4763 258.092 56.009C257.794 56.5346 257.641 57.1205 257.634 57.7668V60.4408C257.634 61.2505 257.783 61.95 258.081 62.5395C258.387 63.129 258.816 63.5836 259.37 63.9032C259.924 64.2228 260.581 64.3826 261.341 64.3826C261.845 64.3826 262.307 64.3115 262.726 64.1695C263.145 64.0274 263.504 63.8144 263.802 63.5303C264.1 63.2462 264.328 62.8982 264.484 62.4863L268.681 62.7632C268.468 63.7718 268.031 64.6524 267.371 65.4053C266.718 66.151 265.872 66.7334 264.835 67.1524C263.806 67.5644 262.616 67.7703 261.267 67.7703ZM274.101 73.5871C273.526 73.5871 272.986 73.5409 272.482 73.4486C271.985 73.3634 271.573 73.2533 271.246 73.1184L272.269 69.7306C272.801 69.8939 273.281 69.9827 273.707 69.9969C274.14 70.0111 274.513 69.9117 274.826 69.6986C275.145 69.4855 275.404 69.1233 275.603 68.612L275.87 67.9195L270 51.0871H274.772L278.16 63.1042H278.331L281.75 51.0871H286.555L280.195 69.2192C279.89 70.0999 279.474 70.8669 278.949 71.5203C278.43 72.1809 277.773 72.6887 276.978 73.0438C276.182 73.406 275.223 73.5871 274.101 73.5871ZM288.963 67.4507V45.6326H293.501V53.8357H293.64C293.838 53.3953 294.126 52.9479 294.502 52.4934C294.886 52.0317 295.383 51.6482 295.994 51.3428C296.612 51.0303 297.379 50.874 298.295 50.874C299.488 50.874 300.589 51.1865 301.598 51.8115C302.606 52.4294 303.412 53.3634 304.016 54.6134C304.62 55.8563 304.922 57.4152 304.922 59.2902C304.922 61.1155 304.627 62.6567 304.037 63.9138C303.455 65.1638 302.659 66.112 301.651 66.7583C300.65 67.3975 299.527 67.7171 298.284 67.7171C297.404 67.7171 296.654 67.5715 296.037 67.2803C295.426 66.9891 294.925 66.6233 294.534 66.183C294.144 65.7355 293.846 65.2846 293.64 64.83H293.437V67.4507H288.963ZM293.405 59.2689C293.405 60.2419 293.54 61.0907 293.81 61.8151C294.08 62.5395 294.471 63.1042 294.982 63.509C295.493 63.9067 296.115 64.1056 296.846 64.1056C297.585 64.1056 298.21 63.9032 298.721 63.4983C299.233 63.0864 299.62 62.5182 299.882 61.7938C300.152 61.0623 300.287 60.2206 300.287 59.2689C300.287 58.3243 300.156 57.4934 299.893 56.776C299.63 56.0587 299.243 55.4976 298.732 55.0928C298.221 54.688 297.592 54.4855 296.846 54.4855C296.108 54.4855 295.483 54.6809 294.971 55.0715C294.467 55.4621 294.08 56.0161 293.81 56.7334C293.54 57.4507 293.405 58.2959 293.405 59.2689ZM315.343 67.7703C313.688 67.7703 312.257 67.4188 311.05 66.7157C309.85 66.0054 308.923 65.0182 308.269 63.754C307.616 62.4827 307.289 61.009 307.289 59.3328C307.289 57.6425 307.616 56.1652 308.269 54.901C308.923 53.6297 309.85 52.6425 311.05 51.9394C312.257 51.2292 313.688 50.874 315.343 50.874C316.998 50.874 318.426 51.2292 319.626 51.9394C320.833 52.6425 321.764 53.6297 322.417 54.901C323.07 56.1652 323.397 57.6425 323.397 59.3328C323.397 61.009 323.07 62.4827 322.417 63.754C321.764 65.0182 320.833 66.0054 319.626 66.7157C318.426 67.4188 316.998 67.7703 315.343 67.7703ZM315.365 64.2547C316.117 64.2547 316.746 64.0417 317.25 63.6155C317.754 63.1823 318.134 62.5928 318.39 61.8471C318.653 61.1013 318.784 60.2526 318.784 59.3009C318.784 58.3492 318.653 57.5005 318.39 56.7547C318.134 56.009 317.754 55.4195 317.25 54.9863C316.746 54.553 316.117 54.3364 315.365 54.3364C314.605 54.3364 313.965 54.553 313.447 54.9863C312.936 55.4195 312.548 56.009 312.286 56.7547C312.03 57.5005 311.902 58.3492 311.902 59.3009C311.902 60.2526 312.03 61.1013 312.286 61.8471C312.548 62.5928 312.936 63.1823 313.447 63.6155C313.965 64.0417 314.605 64.2547 315.365 64.2547ZM330.887 45.6326V67.4507H326.348V45.6326H330.887ZM343.226 51.0871V54.4962H333.371V51.0871H343.226ZM335.609 47.1667H340.147V62.4223C340.147 62.8414 340.211 63.1681 340.339 63.4024C340.467 63.6297 340.644 63.7895 340.871 63.8819C341.106 63.9742 341.376 64.0203 341.681 64.0203C341.894 64.0203 342.107 64.0026 342.32 63.9671C342.533 63.9245 342.697 63.8925 342.81 63.8712L343.524 67.2483C343.297 67.3194 342.977 67.401 342.565 67.4934C342.153 67.5928 341.653 67.6532 341.063 67.6745C339.969 67.7171 339.011 67.5715 338.187 67.2377C337.37 66.9039 336.734 66.3854 336.28 65.6823C335.825 64.9792 335.602 64.0914 335.609 63.0189V47.1667ZM348.835 67.7277C348.132 67.7277 347.528 67.4792 347.024 66.982C346.527 66.4777 346.278 65.874 346.278 65.1709C346.278 64.4749 346.527 63.8783 347.024 63.3811C347.528 62.884 348.132 62.6354 348.835 62.6354C349.517 62.6354 350.113 62.884 350.625 63.3811C351.136 63.8783 351.392 64.4749 351.392 65.1709C351.392 65.6397 351.271 66.0694 351.029 66.46C350.795 66.8435 350.486 67.1524 350.103 67.3868C349.719 67.6141 349.297 67.7277 348.835 67.7277ZM368.733 55.7533L364.578 56.009C364.507 55.6539 364.354 55.3343 364.12 55.0502C363.885 54.759 363.577 54.5282 363.193 54.3577C362.817 54.1801 362.366 54.0914 361.84 54.0914C361.137 54.0914 360.544 54.2405 360.061 54.5388C359.578 54.83 359.336 55.2206 359.336 55.7107C359.336 56.1013 359.493 56.4316 359.805 56.7015C360.118 56.9713 360.654 57.188 361.414 57.3513L364.376 57.9479C365.966 58.2746 367.153 58.8002 367.934 59.5246C368.715 60.249 369.106 61.2007 369.106 62.3797C369.106 63.4522 368.79 64.3932 368.157 65.2029C367.532 66.0125 366.673 66.6446 365.579 67.0992C364.493 67.5466 363.239 67.7703 361.819 67.7703C359.653 67.7703 357.927 67.3194 356.641 66.4174C355.363 65.5083 354.613 64.2725 354.393 62.71L358.857 62.4756C358.992 63.1361 359.319 63.6404 359.837 63.9884C360.356 64.3293 361.02 64.4998 361.829 64.4998C362.625 64.4998 363.264 64.3471 363.747 64.0417C364.237 63.7292 364.486 63.3279 364.493 62.8378C364.486 62.4259 364.312 62.0885 363.971 61.8257C363.63 61.5559 363.104 61.3499 362.394 61.2078L359.56 60.6432C357.962 60.3236 356.773 59.7696 355.991 58.9813C355.217 58.1929 354.83 57.188 354.83 55.9664C354.83 54.9152 355.114 54.0097 355.682 53.2497C356.258 52.4898 357.064 51.9039 358.101 51.4919C359.145 51.08 360.366 50.874 361.765 50.874C363.832 50.874 365.459 51.3108 366.645 52.1844C367.838 53.058 368.534 54.2476 368.733 55.7533ZM379.357 67.7703C377.702 67.7703 376.271 67.4188 375.064 66.7157C373.863 66.0054 372.936 65.0182 372.283 63.754C371.63 62.4827 371.303 61.009 371.303 59.3328C371.303 57.6425 371.63 56.1652 372.283 54.901C372.936 53.6297 373.863 52.6425 375.064 51.9394C376.271 51.2292 377.702 50.874 379.357 50.874C381.012 50.874 382.439 51.2292 383.64 51.9394C384.847 52.6425 385.777 53.6297 386.431 54.901C387.084 56.1652 387.411 57.6425 387.411 59.3328C387.411 61.009 387.084 62.4827 386.431 63.754C385.777 65.0182 384.847 66.0054 383.64 66.7157C382.439 67.4188 381.012 67.7703 379.357 67.7703ZM379.378 64.2547C380.131 64.2547 380.76 64.0417 381.264 63.6155C381.768 63.1823 382.148 62.5928 382.404 61.8471C382.667 61.1013 382.798 60.2526 382.798 59.3009C382.798 58.3492 382.667 57.5005 382.404 56.7547C382.148 56.009 381.768 55.4195 381.264 54.9863C380.76 54.553 380.131 54.3364 379.378 54.3364C378.618 54.3364 377.979 54.553 377.461 54.9863C376.949 55.4195 376.562 56.009 376.299 56.7547C376.044 57.5005 375.916 58.3492 375.916 59.3009C375.916 60.2526 376.044 61.1013 376.299 61.8471C376.562 62.5928 376.949 63.1823 377.461 63.6155C377.979 64.0417 378.618 64.2547 379.378 64.2547ZM394.9 45.6326V67.4507H390.362V45.6326H394.9Z" fill="#6C85DE"/>
<rect x="707.5" y="105.951" width="464" height="94" rx="18.5" fill="#E5E4FF" stroke="#C0CEFF" stroke-width="3"/>
<path d="M808.183 170.928C806.713 170.928 805.452 170.726 804.401 170.321C803.357 169.923 802.526 169.38 801.908 168.691C801.29 168.002 800.889 167.228 800.705 166.368L804.902 165.804C805.03 166.13 805.232 166.436 805.509 166.72C805.786 167.004 806.152 167.231 806.607 167.402C807.068 167.579 807.629 167.668 808.29 167.668C809.277 167.668 810.09 167.427 810.729 166.944C811.376 166.468 811.699 165.669 811.699 164.547V161.553H811.507C811.308 162.008 811.01 162.437 810.612 162.842C810.214 163.247 809.703 163.577 809.078 163.833C808.453 164.089 807.707 164.216 806.841 164.216C805.612 164.216 804.494 163.932 803.485 163.364C802.484 162.789 801.685 161.912 801.088 160.733C800.499 159.547 800.204 158.048 800.204 156.237C800.204 154.383 800.506 152.835 801.109 151.592C801.713 150.349 802.516 149.419 803.517 148.801C804.526 148.183 805.63 147.874 806.83 147.874C807.746 147.874 808.513 148.03 809.131 148.343C809.749 148.648 810.246 149.032 810.623 149.493C811.006 149.948 811.301 150.395 811.507 150.836H811.678V148.087H816.184V164.611C816.184 166.003 815.843 167.167 815.161 168.105C814.479 169.042 813.535 169.745 812.327 170.214C811.127 170.69 809.746 170.928 808.183 170.928ZM808.279 160.807C809.011 160.807 809.629 160.626 810.133 160.264C810.644 159.895 811.035 159.369 811.305 158.687C811.582 157.998 811.72 157.174 811.72 156.216C811.72 155.257 811.585 154.426 811.315 153.723C811.045 153.013 810.655 152.462 810.143 152.071C809.632 151.681 809.011 151.486 808.279 151.486C807.533 151.486 806.905 151.688 806.393 152.093C805.882 152.491 805.495 153.044 805.232 153.755C804.969 154.465 804.838 155.285 804.838 156.216C804.838 157.16 804.969 157.977 805.232 158.666C805.502 159.348 805.889 159.877 806.393 160.253C806.905 160.623 807.533 160.807 808.279 160.807ZM819.795 164.451V148.087H824.334V164.451H819.795ZM822.075 145.978C821.401 145.978 820.822 145.754 820.339 145.307C819.863 144.852 819.625 144.309 819.625 143.677C819.625 143.052 819.863 142.515 820.339 142.068C820.822 141.613 821.401 141.386 822.075 141.386C822.75 141.386 823.325 141.613 823.801 142.068C824.284 142.515 824.526 143.052 824.526 143.677C824.526 144.309 824.284 144.852 823.801 145.307C823.325 145.754 822.75 145.978 822.075 145.978ZM836.673 148.087V151.496H826.819V148.087H836.673ZM829.056 144.167H833.594V159.422C833.594 159.841 833.658 160.168 833.786 160.402C833.914 160.63 834.091 160.79 834.319 160.882C834.553 160.974 834.823 161.02 835.128 161.02C835.341 161.02 835.555 161.003 835.768 160.967C835.981 160.924 836.144 160.893 836.258 160.871L836.971 164.248C836.744 164.319 836.425 164.401 836.013 164.493C835.601 164.593 835.1 164.653 834.51 164.674C833.417 164.717 832.458 164.571 831.634 164.238C830.817 163.904 830.182 163.385 829.727 162.682C829.273 161.979 829.049 161.091 829.056 160.019V144.167ZM844.519 154.991V164.451H839.981V142.633H844.392V150.974H844.583C844.953 150.008 845.549 149.252 846.373 148.705C847.197 148.151 848.23 147.874 849.473 147.874C850.61 147.874 851.6 148.123 852.445 148.62C853.298 149.11 853.958 149.817 854.427 150.74C854.903 151.656 855.137 152.753 855.13 154.032V164.451H850.592V154.841C850.599 153.833 850.343 153.048 849.825 152.487C849.313 151.926 848.596 151.645 847.673 151.645C847.055 151.645 846.508 151.777 846.032 152.04C845.563 152.302 845.194 152.686 844.924 153.19C844.661 153.687 844.526 154.287 844.519 154.991ZM869.195 157.483V148.087H873.734V164.451H869.376V161.478H869.206C868.837 162.437 868.222 163.208 867.363 163.79C866.511 164.373 865.47 164.664 864.241 164.664C863.148 164.664 862.185 164.415 861.354 163.918C860.523 163.421 859.874 162.714 859.405 161.798C858.943 160.882 858.709 159.785 858.702 158.506V148.087H863.24V157.696C863.247 158.662 863.506 159.426 864.018 159.987C864.529 160.548 865.214 160.829 866.074 160.829C866.621 160.829 867.132 160.704 867.608 160.456C868.084 160.2 868.467 159.824 868.759 159.326C869.057 158.829 869.202 158.215 869.195 157.483ZM877.449 164.451V142.633H881.987V150.836H882.126C882.325 150.395 882.612 149.948 882.989 149.493C883.372 149.032 883.869 148.648 884.48 148.343C885.098 148.03 885.865 147.874 886.781 147.874C887.975 147.874 889.075 148.187 890.084 148.812C891.093 149.429 891.899 150.363 892.502 151.613C893.106 152.856 893.408 154.415 893.408 156.29C893.408 158.116 893.113 159.657 892.524 160.914C891.941 162.164 891.146 163.112 890.137 163.758C889.136 164.397 888.014 164.717 886.771 164.717C885.89 164.717 885.141 164.571 884.523 164.28C883.912 163.989 883.411 163.623 883.021 163.183C882.63 162.736 882.332 162.285 882.126 161.83H881.923V164.451H877.449ZM881.892 156.269C881.892 157.242 882.026 158.091 882.296 158.815C882.566 159.54 882.957 160.104 883.468 160.509C883.98 160.907 884.601 161.106 885.333 161.106C886.071 161.106 886.696 160.903 887.208 160.498C887.719 160.086 888.106 159.518 888.369 158.794C888.639 158.062 888.774 157.221 888.774 156.269C888.774 155.324 888.642 154.493 888.379 153.776C888.117 153.059 887.73 152.498 887.218 152.093C886.707 151.688 886.078 151.486 885.333 151.486C884.594 151.486 883.969 151.681 883.458 152.071C882.953 152.462 882.566 153.016 882.296 153.733C882.026 154.451 881.892 155.296 881.892 156.269ZM899.089 164.728C898.386 164.728 897.782 164.479 897.278 163.982C896.781 163.478 896.532 162.874 896.532 162.171C896.532 161.475 896.781 160.878 897.278 160.381C897.782 159.884 898.386 159.635 899.089 159.635C899.771 159.635 900.367 159.884 900.879 160.381C901.39 160.878 901.646 161.475 901.646 162.171C901.646 162.64 901.525 163.069 901.283 163.46C901.049 163.844 900.74 164.152 900.357 164.387C899.973 164.614 899.55 164.728 899.089 164.728ZM912.765 164.77C911.089 164.77 909.647 164.415 908.44 163.705C907.24 162.988 906.316 161.993 905.67 160.722C905.031 159.451 904.711 157.988 904.711 156.333C904.711 154.657 905.034 153.187 905.681 151.922C906.334 150.651 907.261 149.66 908.461 148.95C909.661 148.233 911.089 147.874 912.744 147.874C914.171 147.874 915.421 148.133 916.494 148.652C917.566 149.17 918.415 149.898 919.04 150.836C919.665 151.773 920.009 152.874 920.073 154.138H915.791C915.67 153.321 915.35 152.665 914.832 152.167C914.32 151.663 913.649 151.411 912.818 151.411C912.115 151.411 911.501 151.603 910.975 151.986C910.457 152.363 910.052 152.913 909.761 153.638C909.47 154.362 909.324 155.239 909.324 156.269C909.324 157.313 909.466 158.201 909.75 158.932C910.041 159.664 910.45 160.221 910.975 160.605C911.501 160.988 912.115 161.18 912.818 161.18C913.337 161.18 913.802 161.074 914.214 160.861C914.633 160.647 914.977 160.339 915.247 159.934C915.524 159.522 915.705 159.028 915.791 158.453H920.073C920.002 159.703 919.661 160.804 919.051 161.755C918.447 162.7 917.612 163.439 916.547 163.971C915.482 164.504 914.221 164.77 912.765 164.77ZM930.373 164.77C928.718 164.77 927.287 164.419 926.079 163.716C924.879 163.005 923.952 162.018 923.299 160.754C922.645 159.483 922.319 158.009 922.319 156.333C922.319 154.643 922.645 153.165 923.299 151.901C923.952 150.63 924.879 149.643 926.079 148.939C927.287 148.229 928.718 147.874 930.373 147.874C932.027 147.874 933.455 148.229 934.655 148.939C935.863 149.643 936.793 150.63 937.446 151.901C938.1 153.165 938.426 154.643 938.426 156.333C938.426 158.009 938.1 159.483 937.446 160.754C936.793 162.018 935.863 163.005 934.655 163.716C933.455 164.419 932.027 164.77 930.373 164.77ZM930.394 161.255C931.147 161.255 931.775 161.042 932.279 160.616C932.784 160.182 933.164 159.593 933.419 158.847C933.682 158.101 933.814 157.253 933.814 156.301C933.814 155.349 933.682 154.5 933.419 153.755C933.164 153.009 932.784 152.419 932.279 151.986C931.775 151.553 931.147 151.336 930.394 151.336C929.634 151.336 928.995 151.553 928.476 151.986C927.965 152.419 927.578 153.009 927.315 153.755C927.059 154.5 926.931 155.349 926.931 156.301C926.931 157.253 927.059 158.101 927.315 158.847C927.578 159.593 927.965 160.182 928.476 160.616C928.995 161.042 929.634 161.255 930.394 161.255ZM941.377 164.451V148.087H945.703V150.974H945.895C946.235 150.015 946.804 149.259 947.599 148.705C948.395 148.151 949.346 147.874 950.454 147.874C951.576 147.874 952.532 148.155 953.32 148.716C954.108 149.27 954.634 150.022 954.897 150.974H955.067C955.401 150.037 956.005 149.287 956.878 148.726C957.759 148.158 958.799 147.874 960 147.874C961.527 147.874 962.766 148.361 963.718 149.334C964.676 150.299 965.156 151.67 965.156 153.446V164.451H960.628V154.341C960.628 153.432 960.387 152.75 959.904 152.295C959.421 151.841 958.817 151.613 958.093 151.613C957.269 151.613 956.626 151.876 956.164 152.402C955.703 152.92 955.472 153.606 955.472 154.458V164.451H951.072V154.245C951.072 153.442 950.841 152.803 950.38 152.327C949.925 151.851 949.325 151.613 948.579 151.613C948.075 151.613 947.62 151.741 947.216 151.997C946.818 152.245 946.502 152.597 946.267 153.052C946.033 153.499 945.916 154.025 945.916 154.628V164.451H941.377ZM978.244 141.61L971.212 167.732H967.303L974.334 141.61H978.244ZM994.983 149.685C994.834 149.167 994.624 148.709 994.354 148.311C994.084 147.906 993.754 147.565 993.363 147.288C992.98 147.004 992.54 146.787 992.042 146.638C991.552 146.489 991.009 146.415 990.412 146.415C989.297 146.415 988.317 146.692 987.472 147.245C986.634 147.799 985.981 148.606 985.512 149.664C985.043 150.715 984.809 152 984.809 153.52C984.809 155.04 985.04 156.333 985.501 157.398C985.963 158.464 986.616 159.277 987.461 159.838C988.307 160.392 989.305 160.669 990.455 160.669C991.499 160.669 992.39 160.484 993.129 160.115C993.875 159.738 994.443 159.209 994.834 158.527C995.231 157.846 995.43 157.04 995.43 156.109L996.368 156.248H990.743V152.775H999.873V155.523C999.873 157.441 999.468 159.089 998.658 160.466C997.849 161.837 996.733 162.895 995.313 163.641C993.893 164.38 992.266 164.749 990.434 164.749C988.388 164.749 986.591 164.298 985.043 163.396C983.495 162.487 982.287 161.198 981.421 159.529C980.562 157.853 980.132 155.864 980.132 153.563C980.132 151.794 980.388 150.218 980.899 148.833C981.417 147.441 982.142 146.262 983.072 145.296C984.003 144.33 985.086 143.595 986.322 143.091C987.557 142.586 988.896 142.334 990.338 142.334C991.574 142.334 992.724 142.515 993.79 142.878C994.855 143.233 995.8 143.737 996.623 144.39C997.454 145.044 998.133 145.821 998.658 146.723C999.184 147.618 999.521 148.606 999.67 149.685H994.983ZM1004.28 164.451V148.087H1008.82V164.451H1004.28ZM1006.56 145.978C1005.88 145.978 1005.3 145.754 1004.82 145.307C1004.35 144.852 1004.11 144.309 1004.11 143.677C1004.11 143.052 1004.35 142.515 1004.82 142.068C1005.3 141.613 1005.88 141.386 1006.56 141.386C1007.23 141.386 1007.81 141.613 1008.28 142.068C1008.77 142.515 1009.01 143.052 1009.01 143.677C1009.01 144.309 1008.77 144.852 1008.28 145.307C1007.81 145.754 1007.23 145.978 1006.56 145.978ZM1021.16 148.087V151.496H1011.3V148.087H1021.16ZM1013.54 144.167H1018.08V159.422C1018.08 159.841 1018.14 160.168 1018.27 160.402C1018.4 160.63 1018.57 160.79 1018.8 160.882C1019.04 160.974 1019.31 161.02 1019.61 161.02C1019.82 161.02 1020.04 161.003 1020.25 160.967C1020.46 160.924 1020.63 160.893 1020.74 160.871L1021.45 164.248C1021.23 164.319 1020.91 164.401 1020.5 164.493C1020.08 164.593 1019.58 164.653 1018.99 164.674C1017.9 164.717 1016.94 164.571 1016.12 164.238C1015.3 163.904 1014.66 163.385 1014.21 162.682C1013.75 161.979 1013.53 161.091 1013.54 160.019V144.167ZM1024.55 164.451V142.633H1033.28C1034.89 142.633 1036.23 142.87 1037.3 143.346C1038.37 143.822 1039.18 144.483 1039.72 145.328C1040.26 146.166 1040.53 147.132 1040.53 148.226C1040.53 149.078 1040.36 149.827 1040.02 150.473C1039.68 151.113 1039.21 151.638 1038.61 152.05C1038.02 152.455 1037.35 152.743 1036.59 152.913V153.126C1037.42 153.162 1038.2 153.396 1038.92 153.829C1039.65 154.263 1040.24 154.87 1040.7 155.651C1041.15 156.425 1041.38 157.348 1041.38 158.421C1041.38 159.579 1041.09 160.612 1040.52 161.521C1039.95 162.423 1039.11 163.137 1037.99 163.662C1036.88 164.188 1035.5 164.451 1033.87 164.451H1024.55ZM1029.16 160.679H1032.92C1034.21 160.679 1035.15 160.434 1035.73 159.944C1036.32 159.447 1036.62 158.787 1036.62 157.963C1036.62 157.359 1036.47 156.826 1036.18 156.365C1035.89 155.903 1035.48 155.541 1034.94 155.278C1034.4 155.015 1033.77 154.884 1033.03 154.884H1029.16V160.679ZM1029.16 151.763H1032.58C1033.21 151.763 1033.77 151.652 1034.26 151.432C1034.76 151.205 1035.15 150.885 1035.44 150.473C1035.73 150.062 1035.87 149.568 1035.87 148.993C1035.87 148.204 1035.59 147.569 1035.03 147.086C1034.48 146.603 1033.69 146.361 1032.67 146.361H1029.16V151.763ZM1051.69 164.77C1050.04 164.77 1048.6 164.419 1047.4 163.716C1046.2 163.005 1045.27 162.018 1044.62 160.754C1043.96 159.483 1043.64 158.009 1043.64 156.333C1043.64 154.643 1043.96 153.165 1044.62 151.901C1045.27 150.63 1046.2 149.643 1047.4 148.939C1048.6 148.229 1050.04 147.874 1051.69 147.874C1053.35 147.874 1054.77 148.229 1055.97 148.939C1057.18 149.643 1058.11 150.63 1058.76 151.901C1059.42 153.165 1059.74 154.643 1059.74 156.333C1059.74 158.009 1059.42 159.483 1058.76 160.754C1058.11 162.018 1057.18 163.005 1055.97 163.716C1054.77 164.419 1053.35 164.77 1051.69 164.77ZM1051.71 161.255C1052.47 161.255 1053.09 161.042 1053.6 160.616C1054.1 160.182 1054.48 159.593 1054.74 158.847C1055 158.101 1055.13 157.253 1055.13 156.301C1055.13 155.349 1055 154.5 1054.74 153.755C1054.48 153.009 1054.1 152.419 1053.6 151.986C1053.09 151.553 1052.47 151.336 1051.71 151.336C1050.95 151.336 1050.31 151.553 1049.79 151.986C1049.28 152.419 1048.9 153.009 1048.63 153.755C1048.38 154.5 1048.25 155.349 1048.25 156.301C1048.25 157.253 1048.38 158.101 1048.63 158.847C1048.9 159.593 1049.28 160.182 1049.79 160.616C1050.31 161.042 1050.95 161.255 1051.71 161.255ZM1067.23 142.633V164.451H1062.7V142.633H1067.23ZM1079.57 148.087V151.496H1069.72V148.087H1079.57ZM1071.96 144.167H1076.49V159.422C1076.49 159.841 1076.56 160.168 1076.69 160.402C1076.81 160.63 1076.99 160.79 1077.22 160.882C1077.45 160.974 1077.72 161.02 1078.03 161.02C1078.24 161.02 1078.45 161.003 1078.67 160.967C1078.88 160.924 1079.04 160.893 1079.16 160.871L1079.87 164.248C1079.64 164.319 1079.32 164.401 1078.91 164.493C1078.5 164.593 1078 164.653 1077.41 164.674C1076.32 164.717 1075.36 164.571 1074.53 164.238C1073.72 163.904 1073.08 163.385 1072.63 162.682C1072.17 161.979 1071.95 161.091 1071.96 160.019V144.167Z" fill="#6C85DE"/>
<path d="M483.434 56.6963C482.054 56.7326 480.965 57.881 481.001 59.2612C481.037 60.6414 482.186 61.7309 483.566 61.6946L483.434 56.6963ZM688.339 155.388C689.274 154.373 689.209 152.791 688.193 151.856L671.637 136.619C670.621 135.684 669.04 135.75 668.105 136.766C667.17 137.782 667.235 139.363 668.251 140.298L682.967 153.842L669.424 168.558C668.489 169.574 668.554 171.156 669.57 172.091C670.586 173.026 672.168 172.96 673.103 171.944L688.339 155.388ZM483.566 61.6946C520.937 60.7111 543.29 72.5522 557.039 85.4584C563.947 91.9429 568.748 98.7578 572.201 104.503C573.929 107.379 575.317 109.981 576.476 112.163C577.596 114.27 578.592 116.167 579.458 117.392L583.542 114.509C582.908 113.61 582.092 112.077 580.891 109.817C579.73 107.631 578.289 104.927 576.487 101.928C572.877 95.9223 567.803 88.7046 560.461 81.8128C545.71 67.9663 522.063 55.6797 483.434 56.6963L483.566 61.6946ZM579.458 117.392C582.11 121.15 586.232 132.342 600.99 141.54C615.77 150.753 641.09 158.082 686.604 156.193L686.396 151.198C641.41 153.064 617.23 145.771 603.635 137.297C590.018 128.81 586.89 119.252 583.542 114.509L579.458 117.392Z" fill="#839EFF"/>
</svg>
