<svg width="1280" height="431" viewBox="0 0 1280 431" fill="none" xmlns="http://www.w3.org/2000/svg">
<path d="M1279.54 7C1204.68 75.5 1144.51 146 821.643 146C435.077 146 393.211 126.961 207.592 228C144.212 262.5 39.0384 332.5 0.45929 385" stroke="#839EFF" stroke-opacity="0.1" stroke-width="17"/>
<path d="M1279.08 20.5C1204.22 89 1144.05 159.5 821.184 159.5C434.618 159.5 392.752 140.461 207.133 241.5C143.753 276 38.5791 346 0 398.5" stroke="#839EFF" stroke-opacity="0.1" stroke-width="17"/>
<path d="M1280 33.5C1205.14 102 1144.97 172.5 822.103 172.5C435.537 172.5 393.671 153.461 208.052 254.5C144.672 289 39.4976 359 0.918518 411.5" stroke="#839EFF" stroke-opacity="0.1" stroke-width="17"/>
<path d="M1280 47.5C1205.14 116 1144.97 186.5 822.103 186.5C435.537 186.5 393.671 167.461 208.052 268.5C144.672 303 39.4976 373 0.918518 425.5" stroke="#839EFF" stroke-opacity="0.1" stroke-width="17"/>
</svg>
