<svg width="36" height="36" viewBox="0 0 36 36" fill="none" xmlns="http://www.w3.org/2000/svg">
<rect width="36" height="36" rx="18" fill="url(#paint0_linear_79_133)"/>
<g clip-path="url(#clip0_79_133)">
<path d="M11.6007 24.3993C9.62816 22.4268 9.62816 19.23 11.6007 17.2575C11.7788 17.0793 11.8789 16.8377 11.8789 16.5858C11.8789 16.3338 11.7788 16.0922 11.6007 15.914C11.4225 15.7358 11.1809 15.6358 10.9289 15.6358C10.677 15.6358 10.4353 15.7358 10.2572 15.914C9.28519 16.886 8.62326 18.1244 8.3551 19.4725C8.08693 20.8207 8.22456 22.2181 8.75059 23.488C9.27662 24.758 10.1674 25.8434 11.3103 26.6071C12.4533 27.3708 13.797 27.7784 15.1716 27.7784C16.5461 27.7784 17.8898 27.3708 19.0328 26.6071C20.1757 25.8434 21.0665 24.758 21.5925 23.488C22.1185 22.2181 22.2562 20.8207 21.988 19.4725C21.7198 18.1244 21.0579 16.886 20.0859 15.914C19.9078 15.7358 19.6661 15.6358 19.4142 15.6358C19.1622 15.6358 18.9206 15.7358 18.7424 15.914C18.5643 16.0922 18.4642 16.3338 18.4642 16.5858C18.4642 16.8377 18.5643 17.0793 18.7424 17.2575C19.6895 18.2046 20.2216 19.4891 20.2216 20.8284C20.2216 22.1677 19.6895 23.4522 18.7424 24.3993C17.7954 25.3463 16.5109 25.8784 15.1716 25.8784C13.8322 25.8784 12.5477 25.3463 11.6007 24.3993Z" fill="#695CFF" stroke="#695CFF" stroke-width="0.4"/>
<path d="M24.3993 11.6007C26.3718 13.5732 26.3718 16.7699 24.3993 18.7424C24.2211 18.9206 24.1211 19.1622 24.1211 19.4142C24.1211 19.6661 24.2211 19.9078 24.3993 20.0859C24.5775 20.2641 24.8191 20.3642 25.0711 20.3642C25.323 20.3642 25.5646 20.2641 25.7428 20.0859C26.7148 19.114 27.3767 17.8756 27.6449 16.5274C27.913 15.1793 27.7754 13.7818 27.2494 12.5119C26.7233 11.2419 25.8325 10.1565 24.6896 9.39283C23.5467 8.62915 22.203 8.22154 20.8284 8.22154C19.4538 8.22154 18.1101 8.62915 16.9672 9.39283C15.8243 10.1565 14.9335 11.2419 14.4075 12.5119C13.8814 13.7818 13.7438 15.1793 14.012 16.5274C14.2801 17.8756 14.942 19.114 15.914 20.0859C16.0922 20.2641 16.3338 20.3642 16.5858 20.3642C16.8377 20.3642 17.0794 20.2641 17.2575 20.0859C17.4357 19.9078 17.5358 19.6661 17.5358 19.4142C17.5358 19.1622 17.4357 18.9206 17.2575 18.7424C16.3105 17.7954 15.7784 16.5109 15.7784 15.1715C15.7784 13.8322 16.3105 12.5477 17.2575 11.6007C18.2046 10.6536 19.4891 10.1215 20.8284 10.1215C22.1678 10.1215 23.4522 10.6536 24.3993 11.6007Z" fill="#695CFF" stroke="#695CFF" stroke-width="0.4"/>
</g>
<defs>
<linearGradient id="paint0_linear_79_133" x1="0" y1="0" x2="788.85" y2="788.85" gradientUnits="userSpaceOnUse">
<stop stop-color="white"/>
<stop offset="1" stop-color="white" stop-opacity="0"/>
</linearGradient>
<clipPath id="clip0_79_133">
<rect width="24" height="24" fill="white" transform="translate(6 6)"/>
</clipPath>
</defs>
</svg>
